<svg width="579" height="579" viewBox="0 0 579 579" fill="none" xmlns="http://www.w3.org/2000/svg">
<g clip-path="url(#clip0_1_45)">
<path d="M361.446 216.021C356.77 220.907 352.707 226.143 349.18 231.624L344.634 227.274C349.97 223.524 355.007 219.22 359.683 214.334C398.556 173.716 397.141 109.264 356.522 70.3911C315.904 31.5184 251.452 32.9337 212.579 73.5521C173.706 114.17 175.122 178.623 215.74 217.495C220.672 222.216 225.97 226.338 231.527 229.879L227.414 234.177C223.632 228.781 219.297 223.684 214.349 218.949C173.716 180.091 109.264 181.507 70.3911 222.125C31.5184 262.743 32.9338 327.196 73.5521 366.068C114.17 404.941 178.623 403.526 217.495 362.907C222.171 358.021 226.234 352.786 229.762 347.304L234.307 351.655C228.971 355.405 223.934 359.708 219.258 364.594C180.385 405.213 181.785 469.65 222.419 508.537C263.053 547.425 327.489 545.995 366.362 505.376C405.235 464.758 403.819 400.306 363.201 361.433C358.269 356.713 352.971 352.591 347.414 349.05L351.528 344.751C355.309 350.148 359.644 355.245 364.592 359.98C405.21 398.853 469.663 397.437 508.535 356.819C547.408 316.201 545.993 251.748 505.374 212.876C464.756 174.003 400.304 175.418 361.431 216.037L361.446 216.021Z" fill="#76ED6E" fill-opacity="0.47"/>
</g>
<defs>
<clipPath id="clip0_1_45">
<rect width="409.264" height="409.671" fill="white" transform="translate(0 295.677) rotate(-46.258)"/>
</clipPath>
</defs>
</svg>
